<?xml version="1.0" encoding="UTF-8"?>
<svg xmlns="http://www.w3.org/2000/svg" style="stroke-dasharray:none; shape-rendering:auto; font-family:'Arial'; text-rendering:auto; fill-opacity:1; color-interpolation:auto; color-rendering:auto; font-size:12; fill:black; stroke:black; image-rendering:auto; stroke-miterlimit:10; stroke-linecap:square; stroke-linejoin:miter; font-style:normal; stroke-width:1; stroke-dashoffset:0; font-weight:normal; stroke-opacity:1;" contentScriptType="text/ecmascript" preserveAspectRatio="xMidYMid meet" zoomAndPan="magnify" version="1.0" contentStyleType="text/css" xml:xlink="http://www.w3.org/1999/xlink" width="1201" height="801"><rect x="60" y="263" width="1141" height="413" ry="0" rx="0" style="stroke:#000000; fill:#ECECEC" /><g componentSequence="22"><text x="-469" y="68" transform="rotate(270)" text-anchor="middle" style="font-weight:bold;font-size:10px;stroke:none; fill:#434343"><tspan dy="14" x="-469">Inspeção de Qualidade</tspan></text></g><rect x="60" y="675" width="1141" height="126" ry="0" rx="0" style="stroke:#000000; fill:#D7D7D7" /><g componentSequence="23"><text x="-738" y="68" transform="rotate(270)" text-anchor="middle" style="font-weight:bold;font-size:10px;stroke:none; fill:#434343"><tspan dy="14" x="-738">Supervisor</tspan></text></g><rect x="60" y="112" width="1141" height="152" ry="0" rx="0" style="stroke:#000000; fill:#FFFFFF" /><g componentSequence="21"><text x="-188" y="68" transform="rotate(270)" text-anchor="middle" style="font-weight:bold;font-size:10px;stroke:none; fill:#434343"><tspan dy="14" x="-188">Operador</tspan></text></g><g sequence="1"><ellipse cx="127" cy="187" rx="17" ry="17" stroke-width="1" style="fill:url(#linearGradient66FF6696FF96B6FFB6_1168054954);" stroke="336633" /></g><g sequence="4"><rect x="170" y="314" width="106" height="60" ry="5" rx="5" style="fill:url(#linearGradientF8FBFEEDF5FCDEEDFAD4E7F8E2E5E9_1264118889);" stroke="191970" /></g><g componentSequence="4"><text x="223" y="333" text-anchor="middle" style="font-weight:bold;font-size:10px;stroke:none; fill:#333399"><tspan dy="14" x="223">Corte</tspan></text></g><g sequence="6"><rect x="170" y="592" width="106" height="60" ry="5" rx="5" style="fill:url(#linearGradientF8FBFEEDF5FCDEEDFAD4E7F8E2E5E9_1332179418);" stroke="191970" /></g><g componentSequence="6"><text x="223" y="611" text-anchor="middle" style="font-weight:bold;font-size:10px;stroke:none; fill:#333399"><tspan dy="14" x="223">Serraria</tspan></text></g><g sequence="8"><rect x="538" y="592" width="106" height="60" ry="5" rx="5" style="fill:url(#linearGradientF8FBFEEDF5FCDEEDFAD4E7F8E2E5E9_174450258);" stroke="191970" /></g><g componentSequence="8"><text x="591" y="611" text-anchor="middle" style="font-weight:bold;font-size:10px;stroke:none; fill:#333399"><tspan dy="14" x="591">Secagem</tspan></text></g><g sequence="10"><rect x="680" y="700" width="106" height="76" ry="5" rx="5" style="fill:url(#linearGradientF8FBFEEDF5FCDEEDFAD4E7F8E2E5E9_932378622);" stroke="191970" /></g><g componentSequence="10"><text x="733" y="715" text-anchor="middle" style="font-weight:bold;font-size:10px;stroke:none; fill:#333399"><tspan dy="14" x="733">Aprovação de</tspan><tspan dy="14" x="733">qualidade</tspan></text></g><g sequence="16"><rect x="810" y="160" width="106" height="76" ry="5" rx="5" style="fill:url(#linearGradientF8FBFEEDF5FCDEEDFAD4E7F8E2E5E9_1000697537);" stroke="191970" /></g><g componentSequence="16"><text x="863" y="175" text-anchor="middle" style="font-weight:bold;font-size:10px;stroke:none; fill:#333399"><tspan dy="14" x="863">Resultado -</tspan><tspan dy="14" x="863">Produção</tspan></text></g><g sequence="18"><ellipse cx="677" cy="197" rx="17" ry="17" stroke-width="3" style="fill:url(#linearGradientFF6666FF9696FFB6B6_1337467342);" stroke="993333" /></g><rect x="60" y="40" width="251" height="55" ry="5" rx="5" style="stroke:none; fill:#FFFFE0" /><g componentSequence="24"><text x="70" y="53" text-anchor="left" style="font-weight:bold;font-size:10px;stroke:none; fill:#000000"><tspan dy="14" x="70">Processo de controle de Qualidade.</tspan></text></g><path style="fill:none; stroke-width:1; stroke:#000000;" d="M80.0 40.0 L60.0 40.0 L60.0 95.0 L80.0 95.0" /><g sequence="36"><polygon points=" 193 470 223 440 253 470 223 500 193 470" style="fill:url(#linearGradientFAFBFCFFFFCC_1783240989);" stroke="000000" /></g><g componentSequence="36"><text x="223" y="510" text-anchor="middle" style="font-weight:bold;font-size:10px;stroke:none; fill:#333399"><tspan dy="14" x="223">Exclusi</tspan><tspan dy="14" x="223">vo</tspan></text></g><g sequence="42"><polygon points=" 400 598 430 568 460 598 430 628 400 598" style="fill:url(#linearGradientFAFBFCFFFFCC_1254571693);" stroke="000000" /></g><g componentSequence="42"><text x="430" y="638" text-anchor="middle" style="font-weight:bold;font-size:10px;stroke:none; fill:#333399"><tspan dy="14" x="430">Exclusi</tspan><tspan dy="14" x="430">vo</tspan></text></g><g sequence="48"><polygon points=" 561 470 591 440 621 470 591 500 561 470" style="fill:url(#linearGradientFAFBFCFFFFCC_1510249042);" stroke="000000" /></g><g componentSequence="48"><text x="591" y="510" text-anchor="middle" style="font-weight:bold;font-size:10px;stroke:none; fill:#333399"><tspan dy="14" x="591">Exclusi</tspan><tspan dy="14" x="591">vo</tspan></text></g><g sequence="51"><rect x="380" y="160" width="106" height="76" ry="5" rx="5" style="fill:url(#linearGradientF8FBFEEDF5FCDEEDFAD4E7F8E2E5E9_1421635213);" stroke="191970" /></g><g componentSequence="51"><text x="433" y="175" text-anchor="middle" style="font-weight:bold;font-size:10px;stroke:none; fill:#333399"><tspan dy="14" x="433">Resultado -</tspan><tspan dy="14" x="433">Justificativa</tspan></text></g><g componentSequence="19"><text x="762" y="197" style="font-size:10px;font-weight:none;stroke:none; fill:#333399" text-anchor="left" /></g><g componentSequence="34"><text x="873" y="526" style="font-size:10px;font-weight:none;stroke:none; fill:#333399" text-anchor="left" /></g><g componentSequence="35"><text x="160" y="170" style="font-size:10px;font-weight:none;stroke:none; fill:#333399" text-anchor="left"><tspan dy="14" x="160">Dados do lote</tspan></text></g><g componentSequence="45"><text x="233" y="570" style="font-size:10px;font-weight:none;stroke:none; fill:#333399" text-anchor="left" /></g><g componentSequence="46"><text x="348" y="622" style="font-size:10px;font-weight:none;stroke:none; fill:#333399" text-anchor="left" /></g><g componentSequence="47"><text x="509" y="622" style="font-size:10px;font-weight:none;stroke:none; fill:#333399" text-anchor="left" /></g><g componentSequence="49"><text x="601" y="570" style="font-size:10px;font-weight:none;stroke:none; fill:#333399" text-anchor="left" /></g><g componentSequence="50"><text x="743" y="540" style="font-size:10px;font-weight:none;stroke:none; fill:#333399" text-anchor="left" /></g><g componentSequence="53"><text x="583" y="197" style="font-size:10px;font-weight:none;stroke:none; fill:#333399" text-anchor="left" /></g><g componentSequence="54"><text x="233" y="407" style="font-size:10px;font-weight:none;stroke:none; fill:#333399" text-anchor="left" /></g><g componentSequence="55"><text x="337" y="357" style="font-size:10px;font-weight:none;stroke:none; fill:#333399" text-anchor="left" /></g><g componentSequence="56"><text x="441" y="402" style="font-size:10px;font-weight:none;stroke:none; fill:#333399" text-anchor="left" /></g><g componentSequence="57"><text x="584" y="319" style="font-size:10px;font-weight:none;stroke:none; fill:#333399" text-anchor="left" /></g><path style="fill:none; stroke:#000000;stroke-width:1" d="M145.0 187.0 L223.0 187.0 L223.0 313.0" /><polygon style="fill:#000000; stroke:#000000;" points=" 228 303 223 313 218 303 223 305" /><path style="fill:none; stroke:#000000;stroke-width:1" d="M223.0 374.0 L223.0 439.0" /><polygon style="fill:#000000; stroke:#000000;" points=" 228 429 223 439 218 429 223 431" /><path style="fill:none; stroke:#000000;stroke-width:1" d="M276.0 622.0 L399.0 622.0" /><polygon style="fill:#000000; stroke:#000000;" points=" 389 617 399 622 389 627 391 622" /><path style="fill:none; stroke:#000000;stroke-width:1" d="M223.0 548.0 L223.0 591.0" /><polygon style="fill:#000000; stroke:#000000;" points=" 228 581 223 591 218 581 223 583" /><path style="fill:none; stroke:#000000;stroke-width:1" d="M591.0 591.0 L591.0 548.0" /><polygon style="fill:#000000; stroke:#000000;" points=" 586 558 591 548 596 558 591 556" /><path style="fill:none; stroke:#000000;stroke-width:1" d="M460.0 622.0 L537.0 622.0" /><polygon style="fill:#000000; stroke:#000000;" points=" 527 617 537 622 527 627 529 622" /><path style="fill:none; stroke:#000000;stroke-width:1" d="M786.0 738.0 L863.0 738.0 L863.0 236.0" /><polygon style="fill:#000000; stroke:#000000;" points=" 858 246 863 236 868 246 863 244" /><path style="fill:none; stroke:#000000;stroke-width:1" d="M621.0 493.0 L733.0 493.0 L733.0 699.0" /><polygon style="fill:#000000; stroke:#000000;" points=" 738 689 733 699 728 689 733 691" /><path style="fill:none; stroke:#000000;stroke-width:1" d="M809.0 197.0 L694.0 197.0" /><polygon style="fill:#000000; stroke:#000000;" points=" 704 202 694 197 704 192 702 197" /><path style="fill:none; stroke:#000000;stroke-width:1" d="M486.0 197.0 L660.0 197.0" /><polygon style="fill:#000000; stroke:#000000;" points=" 650 192 660 197 650 202 652 197" /><path style="fill:none; stroke:#000000;stroke-width:1" d="M253.0 494.0 L327.0 494.0 L327.0 198.0 L379.0 198.0" /><polygon style="fill:#000000; stroke:#000000;" points=" 369 193 379 198 369 203 371 198" /><path style="fill:none; stroke:#000000;stroke-width:1" d="M430.0 567.0 L432.0 236.0" /><polygon style="fill:#000000; stroke:#000000;" points=" 427 246 432 236 437 246 432 244" /><path style="fill:none; stroke:#000000;stroke-width:1" d="M591.0 439.0 L591.0 334.0 L477.0 236.0" /><polygon style="fill:#000000; stroke:#000000;" points=" 481 246 477 236 488 239 483 241" /><defs><linearGradient xmlns:xlink="http://www.w3.org/1999/xlink" xlink:href="#linearGradient66FF6696FF96B6FFB6" id="linearGradient66FF6696FF96B6FFB6_1168054954" x1="0" y1="170.0" x2="0" y2="205.0" gradientUnits="userSpaceOnUse" xlink:type="simple" xlink:actuate="onLoad" xlink:show="other" /><linearGradient id="linearGradient66FF6696FF96B6FFB6"><stop style="stop-color:#66FF66;stop-opacity:1;" offset="0.0" id="stop66FF66" /><stop style="stop-color:#96FF96;stop-opacity:1;" offset="0.5" id="stop96FF96" /><stop style="stop-color:#B6FFB6;stop-opacity:1;" offset="1.0" id="stopB6FFB6" /></linearGradient><linearGradient xmlns:xlink="http://www.w3.org/1999/xlink" xlink:href="#linearGradientF8FBFEEDF5FCDEEDFAD4E7F8E2E5E9" id="linearGradientF8FBFEEDF5FCDEEDFAD4E7F8E2E5E9_1264118889" x1="0" y1="314.0" x2="0" y2="420.0" gradientUnits="userSpaceOnUse" xlink:type="simple" xlink:actuate="onLoad" xlink:show="other" /><linearGradient id="linearGradientF8FBFEEDF5FCDEEDFAD4E7F8E2E5E9"><stop style="stop-color:#F8FBFE;stop-opacity:1;" offset="0.0" id="stopF8FBFE" /><stop style="stop-color:#EDF5FC;stop-opacity:1;" offset="0.25" id="stopEDF5FC" /><stop style="stop-color:#DEEDFA;stop-opacity:1;" offset="0.5" id="stopDEEDFA" /><stop style="stop-color:#D4E7F8;stop-opacity:1;" offset="0.75" id="stopD4E7F8" /><stop style="stop-color:#E2E5E9;stop-opacity:1;" offset="1.0" id="stopE2E5E9" /></linearGradient><linearGradient xmlns:xlink="http://www.w3.org/1999/xlink" xlink:href="#linearGradientF8FBFEEDF5FCDEEDFAD4E7F8E2E5E9" id="linearGradientF8FBFEEDF5FCDEEDFAD4E7F8E2E5E9_1332179418" x1="0" y1="592.0" x2="0" y2="698.0" gradientUnits="userSpaceOnUse" xlink:type="simple" xlink:actuate="onLoad" xlink:show="other" /><linearGradient xmlns:xlink="http://www.w3.org/1999/xlink" xlink:href="#linearGradientF8FBFEEDF5FCDEEDFAD4E7F8E2E5E9" id="linearGradientF8FBFEEDF5FCDEEDFAD4E7F8E2E5E9_174450258" x1="0" y1="592.0" x2="0" y2="698.0" gradientUnits="userSpaceOnUse" xlink:type="simple" xlink:actuate="onLoad" xlink:show="other" /><linearGradient xmlns:xlink="http://www.w3.org/1999/xlink" xlink:href="#linearGradientF8FBFEEDF5FCDEEDFAD4E7F8E2E5E9" id="linearGradientF8FBFEEDF5FCDEEDFAD4E7F8E2E5E9_932378622" x1="0" y1="700.0" x2="0" y2="806.0" gradientUnits="userSpaceOnUse" xlink:type="simple" xlink:actuate="onLoad" xlink:show="other" /><linearGradient xmlns:xlink="http://www.w3.org/1999/xlink" xlink:href="#linearGradientF8FBFEEDF5FCDEEDFAD4E7F8E2E5E9" id="linearGradientF8FBFEEDF5FCDEEDFAD4E7F8E2E5E9_1000697537" x1="0" y1="160.0" x2="0" y2="266.0" gradientUnits="userSpaceOnUse" xlink:type="simple" xlink:actuate="onLoad" xlink:show="other" /><linearGradient xmlns:xlink="http://www.w3.org/1999/xlink" xlink:href="#linearGradientFF6666FF9696FFB6B6" id="linearGradientFF6666FF9696FFB6B6_1337467342" x1="0" y1="180.0" x2="0" y2="215.0" gradientUnits="userSpaceOnUse" xlink:type="simple" xlink:actuate="onLoad" xlink:show="other" /><linearGradient id="linearGradientFF6666FF9696FFB6B6"><stop style="stop-color:#FF6666;stop-opacity:1;" offset="0.0" id="stopFF6666" /><stop style="stop-color:#FF9696;stop-opacity:1;" offset="0.5" id="stopFF9696" /><stop style="stop-color:#FFB6B6;stop-opacity:1;" offset="1.0" id="stopFFB6B6" /></linearGradient><linearGradient xmlns:xlink="http://www.w3.org/1999/xlink" xlink:href="#linearGradientFAFBFCFFFFCC" id="linearGradientFAFBFCFFFFCC_1783240989" x1="0" y1="440.0" x2="0" y2="500.0" gradientUnits="userSpaceOnUse" xlink:type="simple" xlink:actuate="onLoad" xlink:show="other" /><linearGradient id="linearGradientFAFBFCFFFFCC"><stop style="stop-color:#FAFBFC;stop-opacity:1;" offset="0.0" id="stopFAFBFC" /><stop style="stop-color:#FFFFCC;stop-opacity:1;" offset="1.0" id="stopFFFFCC" /></linearGradient><linearGradient xmlns:xlink="http://www.w3.org/1999/xlink" xlink:href="#linearGradientFAFBFCFFFFCC" id="linearGradientFAFBFCFFFFCC_1254571693" x1="0" y1="568.0" x2="0" y2="628.0" gradientUnits="userSpaceOnUse" xlink:type="simple" xlink:actuate="onLoad" xlink:show="other" /><linearGradient xmlns:xlink="http://www.w3.org/1999/xlink" xlink:href="#linearGradientFAFBFCFFFFCC" id="linearGradientFAFBFCFFFFCC_1510249042" x1="0" y1="440.0" x2="0" y2="500.0" gradientUnits="userSpaceOnUse" xlink:type="simple" xlink:actuate="onLoad" xlink:show="other" /><linearGradient xmlns:xlink="http://www.w3.org/1999/xlink" xlink:href="#linearGradientF8FBFEEDF5FCDEEDFAD4E7F8E2E5E9" id="linearGradientF8FBFEEDF5FCDEEDFAD4E7F8E2E5E9_1421635213" x1="0" y1="160.0" x2="0" y2="266.0" gradientUnits="userSpaceOnUse" xlink:type="simple" xlink:actuate="onLoad" xlink:show="other" /></defs></svg>
