<?xml version="1.0" encoding="UTF-8"?>
<svg xmlns="http://www.w3.org/2000/svg" style="stroke-dasharray:none; shape-rendering:auto; font-family:'Arial'; text-rendering:auto; fill-opacity:1; color-interpolation:auto; color-rendering:auto; font-size:12; fill:black; stroke:black; image-rendering:auto; stroke-miterlimit:10; stroke-linecap:square; stroke-linejoin:miter; font-style:normal; stroke-width:1; stroke-dashoffset:0; font-weight:normal; stroke-opacity:1;" contentScriptType="text/ecmascript" preserveAspectRatio="xMidYMid meet" zoomAndPan="magnify" version="1.0" contentStyleType="text/css" xml:xlink="http://www.w3.org/1999/xlink" width="1201" height="801"><rect x="60" y="263" width="1141" height="413" ry="0" rx="0" style="stroke:#000000; fill:#ECECEC" /><g componentSequence="22"><text x="-469" y="68" transform="rotate(270)" text-anchor="middle" style="font-weight:bold;font-size:10px;stroke:none; fill:#434343"><tspan dy="14" x="-469">Inspeção de Qualidade</tspan></text></g><rect x="60" y="675" width="1141" height="126" ry="0" rx="0" style="stroke:#000000; fill:#D7D7D7" /><g componentSequence="23"><text x="-738" y="68" transform="rotate(270)" text-anchor="middle" style="font-weight:bold;font-size:10px;stroke:none; fill:#434343"><tspan dy="14" x="-738">Supervisor</tspan></text></g><rect x="60" y="112" width="1141" height="152" ry="0" rx="0" style="stroke:#000000; fill:#FFFFFF" /><g componentSequence="21"><text x="-188" y="68" transform="rotate(270)" text-anchor="middle" style="font-weight:bold;font-size:10px;stroke:none; fill:#434343"><tspan dy="14" x="-188">Operador</tspan></text></g><g sequence="1"><ellipse cx="127" cy="187" rx="17" ry="17" stroke-width="1" style="fill:url(#linearGradient66FF6696FF96B6FFB6_339448598);" stroke="336633" /></g><g sequence="4"><rect x="170" y="314" width="106" height="60" ry="5" rx="5" style="fill:url(#linearGradientF8FBFEEDF5FCDEEDFAD4E7F8E2E5E9_452755425);" stroke="191970" /></g><g componentSequence="4"><text x="223" y="333" text-anchor="middle" style="font-weight:bold;font-size:10px;stroke:none; fill:#333399"><tspan dy="14" x="223">Corte</tspan></text></g><g sequence="6"><rect x="170" y="590" width="106" height="60" ry="5" rx="5" style="fill:url(#linearGradientF8FBFEEDF5FCDEEDFAD4E7F8E2E5E9_516159590);" stroke="191970" /></g><g componentSequence="6"><text x="223" y="609" text-anchor="middle" style="font-weight:bold;font-size:10px;stroke:none; fill:#333399"><tspan dy="14" x="223">Serraria</tspan></text></g><g sequence="8"><rect x="538" y="592" width="106" height="60" ry="5" rx="5" style="fill:url(#linearGradientF8FBFEEDF5FCDEEDFAD4E7F8E2E5E9_1539405274);" stroke="191970" /></g><g componentSequence="8"><text x="591" y="611" text-anchor="middle" style="font-weight:bold;font-size:10px;stroke:none; fill:#333399"><tspan dy="14" x="591">Secagem</tspan></text></g><g sequence="10"><rect x="680" y="700" width="106" height="76" ry="5" rx="5" style="fill:url(#linearGradientF8FBFEEDF5FCDEEDFAD4E7F8E2E5E9_321584791);" stroke="191970" /></g><g componentSequence="10"><text x="733" y="715" text-anchor="middle" style="font-weight:bold;font-size:10px;stroke:none; fill:#333399"><tspan dy="14" x="733">Aprovação de</tspan><tspan dy="14" x="733">qualidade</tspan></text></g><g sequence="16"><rect x="810" y="160" width="106" height="76" ry="5" rx="5" style="fill:url(#linearGradientF8FBFEEDF5FCDEEDFAD4E7F8E2E5E9_1792051300);" stroke="191970" /></g><g componentSequence="16"><text x="863" y="175" text-anchor="middle" style="font-weight:bold;font-size:10px;stroke:none; fill:#333399"><tspan dy="14" x="863">Resultado -</tspan><tspan dy="14" x="863">Produção</tspan></text></g><g sequence="18"><ellipse cx="647" cy="197" rx="17" ry="17" stroke-width="3" style="fill:url(#linearGradientFF6666FF9696FFB6B6_1808883088);" stroke="993333" /></g><rect x="60" y="40" width="251" height="55" ry="5" rx="5" style="stroke:none; fill:#FFFFE0" /><g componentSequence="24"><text x="70" y="53" text-anchor="left" style="font-weight:bold;font-size:10px;stroke:none; fill:#000000"><tspan dy="14" x="70">Processo de controle de Qualidade.</tspan></text></g><path style="fill:none; stroke-width:1; stroke:#000000;" d="M80.0 40.0 L60.0 40.0 L60.0 95.0 L80.0 95.0" /><g sequence="36"><polygon points=" 190 442 220 412 250 442 220 472 190 442" style="fill:url(#linearGradientFAFBFCFFFFCC_1005488789);" stroke="000000" /></g><g componentSequence="36"><text x="220" y="482" text-anchor="middle" style="font-weight:bold;font-size:10px;stroke:none; fill:#333399"><tspan dy="14" x="220">Validaç</tspan><tspan dy="14" x="220">ão</tspan><tspan dy="14" x="220">Status</tspan></text></g><g sequence="42"><polygon points=" 400 590 430 560 460 590 430 620 400 590" style="fill:url(#linearGradientFAFBFCFFFFCC_2138309945);" stroke="000000" /></g><g componentSequence="42"><text x="430" y="630" text-anchor="middle" style="font-weight:bold;font-size:10px;stroke:none; fill:#333399"><tspan dy="14" x="430">Validaç</tspan><tspan dy="14" x="430">ão</tspan><tspan dy="14" x="430">Status</tspan></text></g><g sequence="48"><polygon points=" 560 460 590 430 620 460 590 490 560 460" style="fill:url(#linearGradientFAFBFCFFFFCC_294199579);" stroke="000000" /></g><g componentSequence="48"><text x="590" y="500" text-anchor="middle" style="font-weight:bold;font-size:10px;stroke:none; fill:#333399"><tspan dy="14" x="590">Validaç</tspan><tspan dy="14" x="590">ão</tspan><tspan dy="14" x="590">Status</tspan></text></g><g sequence="51"><rect x="370" y="160" width="106" height="76" ry="5" rx="5" style="fill:url(#linearGradientF8FBFEEDF5FCDEEDFAD4E7F8E2E5E9_1893061479);" stroke="191970" /></g><g componentSequence="51"><text x="423" y="175" text-anchor="middle" style="font-weight:bold;font-size:10px;stroke:none; fill:#333399"><tspan dy="14" x="423">Resultado -</tspan><tspan dy="14" x="423">Justificativa</tspan></text></g><g componentSequence="19"><text x="747" y="197" style="font-size:10px;font-weight:none;stroke:none; fill:#333399" text-anchor="left" /></g><g componentSequence="34"><text x="873" y="526" style="font-size:10px;font-weight:none;stroke:none; fill:#333399" text-anchor="left" /></g><g componentSequence="35"><text x="160" y="170" style="font-size:10px;font-weight:none;stroke:none; fill:#333399" text-anchor="left"><tspan dy="14" x="160">Dados do lote</tspan></text></g><g componentSequence="45"><text x="232" y="563" style="font-size:10px;font-weight:none;stroke:none; fill:#333399" text-anchor="left" /></g><g componentSequence="46"><text x="348" y="621" style="font-size:10px;font-weight:none;stroke:none; fill:#333399" text-anchor="left" /></g><g componentSequence="47"><text x="509" y="622" style="font-size:10px;font-weight:none;stroke:none; fill:#333399" text-anchor="left" /></g><g componentSequence="49"><text x="600" y="573" style="font-size:10px;font-weight:none;stroke:none; fill:#333399" text-anchor="left" /></g><g componentSequence="50"><text x="743" y="539" style="font-size:10px;font-weight:none;stroke:none; fill:#333399" text-anchor="left" /></g><g componentSequence="53"><text x="563" y="197" style="font-size:10px;font-weight:none;stroke:none; fill:#333399" text-anchor="left" /></g><g componentSequence="54"><text x="138" y="419" style="font-size:10px;font-weight:none;stroke:none; fill:#333399" text-anchor="left" /></g><g componentSequence="55"><text x="322" y="339" style="font-size:10px;font-weight:none;stroke:none; fill:#333399" text-anchor="left" /></g><g componentSequence="56"><text x="436" y="398" style="font-size:10px;font-weight:none;stroke:none; fill:#333399" text-anchor="left" /></g><g componentSequence="57"><text x="577" y="315" style="font-size:10px;font-weight:none;stroke:none; fill:#333399" text-anchor="left" /></g><path style="fill:none; stroke:#000000;stroke-width:1" d="M145.0 187.0 L223.0 187.0 L223.0 313.0" /><polygon style="fill:#000000; stroke:#000000;" points=" 228 303 223 313 218 303 223 305" /><path style="fill:none; stroke:#000000;stroke-width:1" d="M169.0 344.0 L128.0 344.0 L128.0 473.0 L189.0 473.0" /><polygon style="fill:#000000; stroke:#000000;" points=" 179 468 189 473 179 478 181 473" /><path style="fill:none; stroke:#000000;stroke-width:1" d="M276.0 620.0 L399.0 621.0" /><polygon style="fill:#000000; stroke:#000000;" points=" 389 616 399 621 389 626 391 621" /><path style="fill:none; stroke:#000000;stroke-width:1" d="M221.0 536.0 L222.0 589.0" /><polygon style="fill:#000000; stroke:#000000;" points=" 227 579 222 589 217 579 222 581" /><path style="fill:none; stroke:#000000;stroke-width:1" d="M590.0 591.0 L590.0 554.0" /><polygon style="fill:#000000; stroke:#000000;" points=" 585 564 590 554 595 564 590 562" /><path style="fill:none; stroke:#000000;stroke-width:1" d="M460.0 622.0 L537.0 622.0" /><polygon style="fill:#000000; stroke:#000000;" points=" 527 617 537 622 527 627 529 622" /><path style="fill:none; stroke:#000000;stroke-width:1" d="M786.0 738.0 L863.0 738.0 L863.0 236.0" /><polygon style="fill:#000000; stroke:#000000;" points=" 858 246 863 236 868 246 863 244" /><path style="fill:none; stroke:#000000;stroke-width:1" d="M620.0 492.0 L733.0 493.0 L733.0 699.0" /><polygon style="fill:#000000; stroke:#000000;" points=" 738 689 733 699 728 689 733 691" /><path style="fill:none; stroke:#000000;stroke-width:1" d="M809.0 197.0 L664.0 197.0" /><polygon style="fill:#000000; stroke:#000000;" points=" 674 202 664 197 674 192 672 197" /><path style="fill:none; stroke:#000000;stroke-width:1" d="M476.0 197.0 L630.0 197.0" /><polygon style="fill:#000000; stroke:#000000;" points=" 620 192 630 197 620 202 622 197" /><path style="fill:none; stroke:#000000;stroke-width:1" d="M250.0 474.0 L312.0 474.0 L312.0 198.0 L369.0 198.0" /><polygon style="fill:#000000; stroke:#000000;" points=" 359 193 369 198 359 203 361 198" /><path style="fill:none; stroke:#000000;stroke-width:1" d="M429.0 559.0 L423.0 236.0" /><polygon style="fill:#000000; stroke:#000000;" points=" 418 246 423 236 428 246 423 244" /><path style="fill:none; stroke:#000000;stroke-width:1" d="M590.0 429.0 L591.0 334.0 L470.0 236.0" /><polygon style="fill:#000000; stroke:#000000;" points=" 475 246 470 236 481 238 476 241" /><defs><linearGradient xmlns:xlink="http://www.w3.org/1999/xlink" xlink:href="#linearGradient66FF6696FF96B6FFB6" id="linearGradient66FF6696FF96B6FFB6_339448598" x1="0" y1="170.0" x2="0" y2="205.0" gradientUnits="userSpaceOnUse" xlink:type="simple" xlink:actuate="onLoad" xlink:show="other" /><linearGradient id="linearGradient66FF6696FF96B6FFB6"><stop style="stop-color:#66FF66;stop-opacity:1;" offset="0.0" id="stop66FF66" /><stop style="stop-color:#96FF96;stop-opacity:1;" offset="0.5" id="stop96FF96" /><stop style="stop-color:#B6FFB6;stop-opacity:1;" offset="1.0" id="stopB6FFB6" /></linearGradient><linearGradient xmlns:xlink="http://www.w3.org/1999/xlink" xlink:href="#linearGradientF8FBFEEDF5FCDEEDFAD4E7F8E2E5E9" id="linearGradientF8FBFEEDF5FCDEEDFAD4E7F8E2E5E9_452755425" x1="0" y1="314.0" x2="0" y2="420.0" gradientUnits="userSpaceOnUse" xlink:type="simple" xlink:actuate="onLoad" xlink:show="other" /><linearGradient id="linearGradientF8FBFEEDF5FCDEEDFAD4E7F8E2E5E9"><stop style="stop-color:#F8FBFE;stop-opacity:1;" offset="0.0" id="stopF8FBFE" /><stop style="stop-color:#EDF5FC;stop-opacity:1;" offset="0.25" id="stopEDF5FC" /><stop style="stop-color:#DEEDFA;stop-opacity:1;" offset="0.5" id="stopDEEDFA" /><stop style="stop-color:#D4E7F8;stop-opacity:1;" offset="0.75" id="stopD4E7F8" /><stop style="stop-color:#E2E5E9;stop-opacity:1;" offset="1.0" id="stopE2E5E9" /></linearGradient><linearGradient xmlns:xlink="http://www.w3.org/1999/xlink" xlink:href="#linearGradientF8FBFEEDF5FCDEEDFAD4E7F8E2E5E9" id="linearGradientF8FBFEEDF5FCDEEDFAD4E7F8E2E5E9_516159590" x1="0" y1="590.0" x2="0" y2="696.0" gradientUnits="userSpaceOnUse" xlink:type="simple" xlink:actuate="onLoad" xlink:show="other" /><linearGradient xmlns:xlink="http://www.w3.org/1999/xlink" xlink:href="#linearGradientF8FBFEEDF5FCDEEDFAD4E7F8E2E5E9" id="linearGradientF8FBFEEDF5FCDEEDFAD4E7F8E2E5E9_1539405274" x1="0" y1="592.0" x2="0" y2="698.0" gradientUnits="userSpaceOnUse" xlink:type="simple" xlink:actuate="onLoad" xlink:show="other" /><linearGradient xmlns:xlink="http://www.w3.org/1999/xlink" xlink:href="#linearGradientF8FBFEEDF5FCDEEDFAD4E7F8E2E5E9" id="linearGradientF8FBFEEDF5FCDEEDFAD4E7F8E2E5E9_321584791" x1="0" y1="700.0" x2="0" y2="806.0" gradientUnits="userSpaceOnUse" xlink:type="simple" xlink:actuate="onLoad" xlink:show="other" /><linearGradient xmlns:xlink="http://www.w3.org/1999/xlink" xlink:href="#linearGradientF8FBFEEDF5FCDEEDFAD4E7F8E2E5E9" id="linearGradientF8FBFEEDF5FCDEEDFAD4E7F8E2E5E9_1792051300" x1="0" y1="160.0" x2="0" y2="266.0" gradientUnits="userSpaceOnUse" xlink:type="simple" xlink:actuate="onLoad" xlink:show="other" /><linearGradient xmlns:xlink="http://www.w3.org/1999/xlink" xlink:href="#linearGradientFF6666FF9696FFB6B6" id="linearGradientFF6666FF9696FFB6B6_1808883088" x1="0" y1="180.0" x2="0" y2="215.0" gradientUnits="userSpaceOnUse" xlink:type="simple" xlink:actuate="onLoad" xlink:show="other" /><linearGradient id="linearGradientFF6666FF9696FFB6B6"><stop style="stop-color:#FF6666;stop-opacity:1;" offset="0.0" id="stopFF6666" /><stop style="stop-color:#FF9696;stop-opacity:1;" offset="0.5" id="stopFF9696" /><stop style="stop-color:#FFB6B6;stop-opacity:1;" offset="1.0" id="stopFFB6B6" /></linearGradient><linearGradient xmlns:xlink="http://www.w3.org/1999/xlink" xlink:href="#linearGradientFAFBFCFFFFCC" id="linearGradientFAFBFCFFFFCC_1005488789" x1="0" y1="412.0" x2="0" y2="472.0" gradientUnits="userSpaceOnUse" xlink:type="simple" xlink:actuate="onLoad" xlink:show="other" /><linearGradient id="linearGradientFAFBFCFFFFCC"><stop style="stop-color:#FAFBFC;stop-opacity:1;" offset="0.0" id="stopFAFBFC" /><stop style="stop-color:#FFFFCC;stop-opacity:1;" offset="1.0" id="stopFFFFCC" /></linearGradient><linearGradient xmlns:xlink="http://www.w3.org/1999/xlink" xlink:href="#linearGradientFAFBFCFFFFCC" id="linearGradientFAFBFCFFFFCC_2138309945" x1="0" y1="560.0" x2="0" y2="620.0" gradientUnits="userSpaceOnUse" xlink:type="simple" xlink:actuate="onLoad" xlink:show="other" /><linearGradient xmlns:xlink="http://www.w3.org/1999/xlink" xlink:href="#linearGradientFAFBFCFFFFCC" id="linearGradientFAFBFCFFFFCC_294199579" x1="0" y1="430.0" x2="0" y2="490.0" gradientUnits="userSpaceOnUse" xlink:type="simple" xlink:actuate="onLoad" xlink:show="other" /><linearGradient xmlns:xlink="http://www.w3.org/1999/xlink" xlink:href="#linearGradientF8FBFEEDF5FCDEEDFAD4E7F8E2E5E9" id="linearGradientF8FBFEEDF5FCDEEDFAD4E7F8E2E5E9_1893061479" x1="0" y1="160.0" x2="0" y2="266.0" gradientUnits="userSpaceOnUse" xlink:type="simple" xlink:actuate="onLoad" xlink:show="other" /></defs></svg>
